# xmcd
# 
# Track frame offsets:
#     150
#     19354
#     36695
#     51621
#     70704
#     87012
#     104383
#     121064
#     139090
#     153431
#     169049
#     186712
#     199693
#     215046
#     230361
#     245748
# 
# Disc length: 3582
# 
# Revision: 1
# Processed by: cddbd v1.5.2PL0 Copyright (c) Steve Scherf et al.
# Submitted via: fre:ac v1.0.31
# 
DISCID=f10dfc10
DTITLE=Amigos - Zwei Herzen aus Gold
DYEAR=2009
DGENRE=Schlager
TTITLE0=Die weiﬂen Tauben
TTITLE1=Zwei Herzen aus Gold
TTITLE2=Wie vom Winde verweht
TTITLE3=Dann kommt die Nacht
TTITLE4=Das M‰dchen aus dem Vogelsberg
TTITLE5=Schwarze Schatten
TTITLE6=Mein Heimatland
TTITLE7=Wenn du gehen willst
TTITLE8=Der liebe Gott
TTITLE9=Bilder von dir
TTITLE10=Das Lied von Fernando
TTITLE11=Abend in Athen
TTITLE12=Juanito
TTITLE13=Einmal wiedersehn
TTITLE14=Schenk mir bitte keine Rosen
TTITLE15=Ein Amigo sagt adio
EXTD=
EXTT0=
EXTT1=
EXTT2=
EXTT3=
EXTT4=
EXTT5=
EXTT6=
EXTT7=
EXTT8=
EXTT9=
EXTT10=
EXTT11=
EXTT12=
EXTT13=
EXTT14=
EXTT15=
PLAYORDER=
